<svg xmlns="http://www.w3.org/2000/svg" width="1200" height="800" viewBox="0 0 1200 800" preserveAspectRatio="xMidYMid slice">
  <g fill="none" stroke="white" stroke-width="0.8" opacity="0.08">
    <path d="M0,140 C200,80 400,200 600,140 S1000,80 1200,140" />
    <path d="M0,240 C200,180 400,300 600,240 S1000,180 1200,240" />
    <path d="M0,340 C200,280 400,400 600,340 S1000,280 1200,340" />
    <path d="M0,440 C200,380 400,500 600,440 S1000,380 1200,440" />
    <path d="M0,540 C200,480 400,600 600,540 S1000,480 1200,540" />
    <path d="M0,640 C200,580 400,700 600,640 S1000,580 1200,640" />
  </g>
</svg>
